<svg xmlns="http://www.w3.org/2000/svg" width="512" height="512" viewBox="0 0 512 512" version="1.1"><path d="" stroke="none" fill="#080404" fill-rule="evenodd"/><path d="M 223.564 1.566 C 188.545 6.238, 148.869 20.350, 120.811 38.112 C 88.146 58.791, 58.791 88.146, 38.112 120.811 C 24.679 142.030, 11.372 174.858, 5.607 201 C -1.984 235.424, -1.984 276.576, 5.607 311 C 13.831 348.292, 31.730 385.750, 55.781 416 C 65.451 428.163, 83.837 446.549, 96 456.219 C 133.135 485.744, 179.285 505.075, 225.559 510.488 C 242.111 512.424, 269.889 512.424, 286.441 510.488 C 349.786 503.078, 410.477 470.394, 451.687 421.500 C 483.128 384.195, 505.455 333.267, 510.283 287.838 C 510.916 281.877, 511.787 277, 512.217 277 C 512.648 277, 512.993 266.988, 512.985 254.750 C 512.975 240.015, 512.642 233.007, 512 234 C 511.285 235.107, 511.027 234.451, 511.015 231.500 C 510.990 225.098, 507.203 203.459, 503.990 191.359 C 494.744 156.541, 477.943 123.236, 455.380 95 C 446.669 84.098, 427.902 65.331, 417 56.620 C 381.811 28.502, 339.294 9.695, 294.500 2.435 C 280.281 0.130, 238.191 -0.385, 223.564 1.566 M 233 27.094 C 164 34.122, 101.509 72.319, 63.008 131 C 54.578 143.849, 42.976 167.884, 38.148 182.500 C 33.763 195.776, 29.778 212.742, 27.812 226.500 C 26.150 238.136, 26.150 273.864, 27.812 285.500 C 33.908 328.165, 50.657 367.277, 76.844 400 C 108.958 440.129, 155.757 469.247, 206 480.358 C 224.827 484.522, 234.225 485.466, 256.500 485.429 C 280.227 485.390, 292.337 483.918, 313.500 478.501 C 376.057 462.488, 429.815 419.689, 459.831 362 C 471.395 339.775, 478.741 317.566, 483.150 291.500 C 485.781 275.950, 486.331 241.489, 484.188 226.500 C 478.092 183.852, 461.409 144.877, 435.179 112 C 404.681 73.774, 361.211 45.704, 313.643 33.521 C 306.414 31.670, 295.775 29.429, 290 28.542 C 277.177 26.571, 245.923 25.778, 233 27.094 M 212.071 154.702 C 204.156 158.852, 202.084 167.974, 207.583 174.461 C 209.188 176.354, 230.412 195.280, 254.750 216.519 C 279.087 237.759, 299 255.523, 299 255.995 C 299 256.468, 279.313 274.029, 255.250 295.021 C 231.188 316.012, 210.091 334.733, 208.369 336.622 C 206.647 338.511, 204.982 341.342, 204.668 342.912 C 202.690 352.802, 213.010 361.570, 222.088 357.712 C 226.638 355.778, 330.224 264.998, 331.782 261.579 C 333.334 258.174, 333.336 253.830, 331.787 250.432 C 330.763 248.184, 234.488 162.840, 225.467 156.183 C 221.217 153.046, 216.271 152.500, 212.071 154.702 M 0.428 256 C 0.428 268.375, 0.571 273.438, 0.747 267.250 C 0.922 261.063, 0.922 250.938, 0.747 244.750 C 0.571 238.563, 0.428 243.625, 0.428 256" stroke="none" fill="#040404" fill-rule="evenodd"/></svg>